<svg width="67" height="67" viewBox="0 0 67 67" fill="none" xmlns="http://www.w3.org/2000/svg">
<path d="M33.591 67C52.0395 67 66.9949 52.0015 66.9949 33.5C66.9949 14.9985 52.0395 0 33.591 0C15.1425 0 0.186981 14.9985 0.186981 33.5C0.186981 52.0015 15.1425 67 33.591 67Z" fill="#F47F76"/>
<path d="M41.2739 28.3199C41.2739 25.8638 40.1717 23.9138 38.7489 22.47C37.3268 21.0254 35.5538 20.3035 33.4289 20.3035C31.3047 20.3035 29.5858 21.016 28.271 22.443C26.957 23.8689 25.908 25.8283 25.908 28.3199L24.3414 45.3985H14.4575L16.0242 28.3199C16.0242 24.9971 17.1095 22.1087 18.4953 19.6535C19.8818 17.1974 21.8531 15.3015 24.4093 13.9661C26.9664 12.6306 29.9909 11.962 33.483 11.962C36.9759 11.962 40.0182 12.6306 42.6105 13.9661C45.203 15.3015 47.2106 17.1974 48.6327 19.6535C50.0554 22.1087 51.1577 24.9971 51.1577 28.3199L52.7244 45.3985H42.8405L41.2739 28.3199Z" fill="#FDF3E8"/>
<path d="M39.5224 46.3805C39.5224 49.6657 36.8668 52.3289 33.591 52.3289C30.3151 52.3289 27.6596 49.6657 27.6596 46.3805H39.5224Z" fill="#FDF3E8"/>
</svg>
